# xmcd CD database file
#
# Track frame offsets:
#	150
#	21757
#	37457
#	58830
#	83985
#	106310
#	134210
#	155712
#	175667
#	197180
#	218310
#
# Disc length: 3184 seconds
#
# Revision: 0
# Processed by: cddbd v1.5.1PL2 Copyright (c) Steve Scherf et al.
# Submitted via: CDex 1.51
#
DISCID=a10c6e0b
DTITLE=松たか子 - 僕らがいた
DYEAR=2006
DGENRE=JPop
TTITLE0=明かりの灯る方へ
TTITLE1=水溜まりの向こう
TTITLE2=ずっと
TTITLE3=時の舟(Album version)
TTITLE4=ソレアレス・メモリー
TTITLE5=そして僕の夜が明ける
TTITLE6=その日まで
TTITLE7=水槽
TTITLE8=山手駅(Remaster version)
TTITLE9=僕らがいた
TTITLE10=未来になる(Album version)
EXTD=YEAR: 2006/04/26
EXTT0=
EXTT1=
EXTT2=
EXTT3=
EXTT4=
EXTT5=
EXTT6=
EXTT7=
EXTT8=
EXTT9=
EXTT10=
PLAYORDER=
